<svg id="visual" viewBox="0 0 960 540" width="960" height="540" xmlns="http://www.w3.org/2000/svg" xmlns:xlink="http://www.w3.org/1999/xlink" version="1.1"><rect x="0" y="0" width="960" height="540" fill="#090d2b"></rect><path d="M0 225L14.5 217.5C29 210 58 195 87.2 178.7C116.3 162.3 145.7 144.7 174.8 143.8C204 143 233 159 262 166C291 173 320 171 349 176.3C378 181.7 407 194.3 436.2 200C465.3 205.7 494.7 204.3 523.8 197.3C553 190.3 582 177.7 611 179.7C640 181.7 669 198.3 698 207.5C727 216.7 756 218.3 785.2 203.3C814.3 188.3 843.7 156.7 872.8 147.5C902 138.3 931 151.7 945.5 158.3L960 165L960 541L945.5 541C931 541 902 541 872.8 541C843.7 541 814.3 541 785.2 541C756 541 727 541 698 541C669 541 640 541 611 541C582 541 553 541 523.8 541C494.7 541 465.3 541 436.2 541C407 541 378 541 349 541C320 541 291 541 262 541C233 541 204 541 174.8 541C145.7 541 116.3 541 87.2 541C58 541 29 541 14.5 541L0 541Z" fill="#090d2b"></path><path d="M0 263L14.5 260.2C29 257.3 58 251.7 87.2 250.7C116.3 249.7 145.7 253.3 174.8 259C204 264.7 233 272.3 262 261.8C291 251.3 320 222.7 349 222.7C378 222.7 407 251.3 436.2 258.5C465.3 265.7 494.7 251.3 523.8 233.5C553 215.7 582 194.3 611 185.7C640 177 669 181 698 188.8C727 196.7 756 208.3 785.2 219.3C814.3 230.3 843.7 240.7 872.8 233.2C902 225.7 931 200.3 945.5 187.7L960 175L960 541L945.5 541C931 541 902 541 872.8 541C843.7 541 814.3 541 785.2 541C756 541 727 541 698 541C669 541 640 541 611 541C582 541 553 541 523.8 541C494.7 541 465.3 541 436.2 541C407 541 378 541 349 541C320 541 291 541 262 541C233 541 204 541 174.8 541C145.7 541 116.3 541 87.2 541C58 541 29 541 14.5 541L0 541Z" fill="#05123a"></path><path d="M0 237L14.5 242C29 247 58 257 87.2 261C116.3 265 145.7 263 174.8 266.2C204 269.3 233 277.7 262 282.2C291 286.7 320 287.3 349 290C378 292.7 407 297.3 436.2 286.8C465.3 276.3 494.7 250.7 523.8 238.3C553 226 582 227 611 227C640 227 669 226 698 239.8C727 253.7 756 282.3 785.2 285.5C814.3 288.7 843.7 266.3 872.8 267.3C902 268.3 931 292.7 945.5 304.8L960 317L960 541L945.5 541C931 541 902 541 872.8 541C843.7 541 814.3 541 785.2 541C756 541 727 541 698 541C669 541 640 541 611 541C582 541 553 541 523.8 541C494.7 541 465.3 541 436.2 541C407 541 378 541 349 541C320 541 291 541 262 541C233 541 204 541 174.8 541C145.7 541 116.3 541 87.2 541C58 541 29 541 14.5 541L0 541Z" fill="#011449"></path><path d="M0 267L14.5 272.5C29 278 58 289 87.2 291.2C116.3 293.3 145.7 286.7 174.8 288.5C204 290.3 233 300.7 262 301C291 301.3 320 291.7 349 295.2C378 298.7 407 315.3 436.2 322.5C465.3 329.7 494.7 327.3 523.8 330.8C553 334.3 582 343.7 611 342.2C640 340.7 669 328.3 698 320.7C727 313 756 310 785.2 308C814.3 306 843.7 305 872.8 306.8C902 308.7 931 313.3 945.5 315.7L960 318L960 541L945.5 541C931 541 902 541 872.8 541C843.7 541 814.3 541 785.2 541C756 541 727 541 698 541C669 541 640 541 611 541C582 541 553 541 523.8 541C494.7 541 465.3 541 436.2 541C407 541 378 541 349 541C320 541 291 541 262 541C233 541 204 541 174.8 541C145.7 541 116.3 541 87.2 541C58 541 29 541 14.5 541L0 541Z" fill="#001658"></path><path d="M0 368L14.5 360C29 352 58 336 87.2 335.5C116.3 335 145.7 350 174.8 354.2C204 358.3 233 351.7 262 352C291 352.3 320 359.7 349 358.2C378 356.7 407 346.3 436.2 341.3C465.3 336.3 494.7 336.7 523.8 335.2C553 333.7 582 330.3 611 334.7C640 339 669 351 698 358.8C727 366.7 756 370.3 785.2 364.3C814.3 358.3 843.7 342.7 872.8 333.7C902 324.7 931 322.3 945.5 321.2L960 320L960 541L945.5 541C931 541 902 541 872.8 541C843.7 541 814.3 541 785.2 541C756 541 727 541 698 541C669 541 640 541 611 541C582 541 553 541 523.8 541C494.7 541 465.3 541 436.2 541C407 541 378 541 349 541C320 541 291 541 262 541C233 541 204 541 174.8 541C145.7 541 116.3 541 87.2 541C58 541 29 541 14.5 541L0 541Z" fill="#001668"></path><path d="M0 398L14.5 395.8C29 393.7 58 389.3 87.2 392.2C116.3 395 145.7 405 174.8 402C204 399 233 383 262 381C291 379 320 391 349 400.2C378 409.3 407 415.7 436.2 412.8C465.3 410 494.7 398 523.8 397.7C553 397.3 582 408.7 611 416C640 423.3 669 426.7 698 428.3C727 430 756 430 785.2 425.8C814.3 421.7 843.7 413.3 872.8 412.3C902 411.3 931 417.7 945.5 420.8L960 424L960 541L945.5 541C931 541 902 541 872.8 541C843.7 541 814.3 541 785.2 541C756 541 727 541 698 541C669 541 640 541 611 541C582 541 553 541 523.8 541C494.7 541 465.3 541 436.2 541C407 541 378 541 349 541C320 541 291 541 262 541C233 541 204 541 174.8 541C145.7 541 116.3 541 87.2 541C58 541 29 541 14.5 541L0 541Z" fill="#001677"></path><path d="M0 416L14.5 424.3C29 432.7 58 449.3 87.2 455.8C116.3 462.3 145.7 458.7 174.8 455.5C204 452.3 233 449.7 262 446.7C291 443.7 320 440.3 349 438.3C378 436.3 407 435.7 436.2 440.3C465.3 445 494.7 455 523.8 459.8C553 464.7 582 464.3 611 462.2C640 460 669 456 698 455.8C727 455.7 756 459.3 785.2 462.5C814.3 465.7 843.7 468.3 872.8 460.5C902 452.7 931 434.3 945.5 425.2L960 416L960 541L945.5 541C931 541 902 541 872.8 541C843.7 541 814.3 541 785.2 541C756 541 727 541 698 541C669 541 640 541 611 541C582 541 553 541 523.8 541C494.7 541 465.3 541 436.2 541C407 541 378 541 349 541C320 541 291 541 262 541C233 541 204 541 174.8 541C145.7 541 116.3 541 87.2 541C58 541 29 541 14.5 541L0 541Z" fill="#001486"></path><path d="M0 484L14.5 487.5C29 491 58 498 87.2 499.2C116.3 500.3 145.7 495.7 174.8 496.2C204 496.7 233 502.3 262 499.3C291 496.3 320 484.7 349 485.2C378 485.7 407 498.3 436.2 502C465.3 505.7 494.7 500.3 523.8 495.7C553 491 582 487 611 487.8C640 488.7 669 494.3 698 496.2C727 498 756 496 785.2 497.8C814.3 499.7 843.7 505.3 872.8 503.3C902 501.3 931 491.7 945.5 486.8L960 482L960 541L945.5 541C931 541 902 541 872.8 541C843.7 541 814.3 541 785.2 541C756 541 727 541 698 541C669 541 640 541 611 541C582 541 553 541 523.8 541C494.7 541 465.3 541 436.2 541C407 541 378 541 349 541C320 541 291 541 262 541C233 541 204 541 174.8 541C145.7 541 116.3 541 87.2 541C58 541 29 541 14.5 541L0 541Z" fill="#001195"></path></svg>